Flicka.3.Country.Pride.2012.DVDRip.XviD-miRaGe






Flicka 3 Country Pride 2012 DVDRip XviD-miRaGe

Online Info:

imdb: http://www.imdb.com/title/tt2039339/
rating: G
runtime: 111 min
genre: Family
release date: May 1 2012
plot: Flicka and Toby help out a struggling stable owner and her teenage daughter.


Details:

Format : AVI
Format/Info : Audio Video Interleave
File size : 703 MiB
Duration : 1h 32mn
Overall bit rate mode : Variable
Overall bit rate : 1 066 Kbps

Video:

Codec ID : XVID
Duration : 1h 32mn
Bit rate : 940 Kbps
Width : 624 pixels
Height : 352 pixels
Display aspect ratio : 16:9
Frame rate : 23.976 fps
Color space : YUV
Chroma subsampling : 4:2:0
Bit depth : 8 bits
Scan type : Progressive
Compression mode : Lossy
Bits/(Pixel*Frame) : 0.179
Stream size : 620 MiB (88%)
Writing library : XviD 64

Audio:

ID : 1
Format : MPEG Audio
Format version : Version 1
Format profile : Layer 3
Mode : Joint stereo
Mode extension : MS Stereo
Codec ID : 55
Codec ID/Hint : MP3
Duration : 1h 32mn
Bit rate mode : Variable
Bit rate : 113 Kbps
Nominal bit rate : 128 Kbps
Channel(s) : 2 channels
Sampling rate : 48.0 KHz
Compression mode : Lossy
Stream size : 74.6 MiB (11%)
Alignment : Aligned on interleaves
Interleave, duration : 24 ms (0.58 video frame)
Interleave, preload duration : 162 ms